<svg width="414" height="130" viewBox="0 0 414 130" fill="none" xmlns="http://www.w3.org/2000/svg">
<g filter="url(#filter0_d_164_413)">
<rect x="35" y="15" width="170" height="60" rx="10" fill="#F1A501"/>
</g>
<path d="M63.5375 38.112H71.3675V40.038H65.5535V43.746H70.7915V45.654H65.5535V51H63.5375V38.112ZM74.1385 40.488C73.7665 40.488 73.4485 40.362 73.1845 40.11C72.9325 39.846 72.8065 39.528 72.8065 39.156C72.8065 38.784 72.9325 38.472 73.1845 38.22C73.4485 37.956 73.7665 37.824 74.1385 37.824C74.5105 37.824 74.8225 37.956 75.0745 38.22C75.3385 38.472 75.4705 38.784 75.4705 39.156C75.4705 39.528 75.3385 39.846 75.0745 40.11C74.8225 40.362 74.5105 40.488 74.1385 40.488ZM73.1485 41.82H75.1285V51H73.1485V41.82ZM77.5924 41.82H79.4824V43.026H79.5724C79.8364 42.594 80.2264 42.24 80.7424 41.964C81.2704 41.676 81.8284 41.532 82.4164 41.532C83.5324 41.532 84.3784 41.862 84.9544 42.522C85.5424 43.17 85.8364 44.058 85.8364 45.186V51H83.8564V45.456C83.8564 44.736 83.6764 44.208 83.3164 43.872C82.9684 43.536 82.4824 43.368 81.8584 43.368C81.4144 43.368 81.0184 43.494 80.6704 43.746C80.3224 43.986 80.0524 44.31 79.8604 44.718C79.6684 45.126 79.5724 45.564 79.5724 46.032V51H77.5924V41.82ZM91.993 51.288C91.165 51.288 90.415 51.078 89.743 50.658C89.071 50.238 88.537 49.662 88.141 48.93C87.757 48.186 87.565 47.346 87.565 46.41C87.565 45.474 87.757 44.64 88.141 43.908C88.537 43.164 89.071 42.582 89.743 42.162C90.415 41.742 91.165 41.532 91.993 41.532C92.641 41.532 93.223 41.676 93.739 41.964C94.255 42.252 94.645 42.606 94.909 43.026H94.999L94.909 41.73V38.112H96.889V51H94.999V49.812H94.909C94.645 50.22 94.255 50.568 93.739 50.856C93.223 51.144 92.641 51.288 91.993 51.288ZM92.281 49.47C92.761 49.47 93.205 49.344 93.613 49.092C94.033 48.84 94.369 48.48 94.621 48.012C94.873 47.544 94.999 47.01 94.999 46.41C94.999 45.81 94.873 45.282 94.621 44.826C94.369 44.358 94.033 43.998 93.613 43.746C93.205 43.494 92.761 43.368 92.281 43.368C91.801 43.368 91.351 43.494 90.931 43.746C90.511 43.998 90.175 44.358 89.923 44.826C89.671 45.282 89.545 45.81 89.545 46.41C89.545 47.01 89.671 47.544 89.923 48.012C90.175 48.48 90.511 48.84 90.931 49.092C91.351 49.344 91.801 49.47 92.281 49.47ZM107.717 51.288C106.793 51.288 105.965 51.078 105.233 50.658C104.501 50.226 103.931 49.638 103.523 48.894C103.115 48.15 102.911 47.322 102.911 46.41C102.911 45.498 103.115 44.67 103.523 43.926C103.931 43.182 104.501 42.6 105.233 42.18C105.965 41.748 106.793 41.532 107.717 41.532C108.641 41.532 109.469 41.748 110.201 42.18C110.933 42.612 111.503 43.2 111.911 43.944C112.319 44.688 112.523 45.51 112.523 46.41C112.523 47.322 112.319 48.15 111.911 48.894C111.503 49.638 110.933 50.226 110.201 50.658C109.469 51.078 108.641 51.288 107.717 51.288ZM107.717 49.47C108.221 49.47 108.689 49.35 109.121 49.11C109.553 48.858 109.895 48.504 110.147 48.048C110.411 47.58 110.543 47.034 110.543 46.41C110.543 45.786 110.411 45.246 110.147 44.79C109.895 44.334 109.553 43.986 109.121 43.746C108.689 43.494 108.221 43.368 107.717 43.368C107.213 43.368 106.745 43.494 106.313 43.746C105.881 43.986 105.533 44.334 105.269 44.79C105.017 45.246 104.891 45.786 104.891 46.41C104.891 47.034 105.017 47.58 105.269 48.048C105.533 48.504 105.881 48.858 106.313 49.11C106.745 49.35 107.213 49.47 107.717 49.47ZM117.608 51.288C116.492 51.288 115.64 50.958 115.052 50.298C114.476 49.626 114.188 48.696 114.188 47.508V41.82H116.168V47.238C116.168 47.982 116.342 48.54 116.69 48.912C117.05 49.284 117.518 49.47 118.094 49.47C118.562 49.47 118.976 49.35 119.336 49.11C119.696 48.858 119.972 48.528 120.164 48.12C120.356 47.712 120.452 47.274 120.452 46.806V41.82H122.432V51H120.56V49.812H120.452C120.2 50.244 119.81 50.598 119.282 50.874C118.754 51.15 118.196 51.288 117.608 51.288ZM128.587 51.144C128.179 51.144 127.795 51.078 127.435 50.946C127.075 50.814 126.781 50.64 126.553 50.424C126.037 49.908 125.779 49.206 125.779 48.318V43.566H124.177V41.82H125.779V39.228H127.759V41.82H129.991V43.566H127.759V47.886C127.759 48.378 127.855 48.726 128.047 48.93C128.227 49.17 128.539 49.29 128.983 49.29C129.187 49.29 129.367 49.266 129.523 49.218C129.679 49.158 129.847 49.068 130.027 48.948V50.874C129.631 51.054 129.151 51.144 128.587 51.144ZM136.092 41.82H137.982V43.026H138.072C138.348 42.582 138.738 42.222 139.242 41.946C139.746 41.67 140.286 41.532 140.862 41.532C141.522 41.532 142.098 41.688 142.59 42C143.082 42.3 143.436 42.702 143.652 43.206C143.964 42.702 144.378 42.3 144.894 42C145.422 41.688 146.04 41.532 146.748 41.532C147.804 41.532 148.602 41.856 149.142 42.504C149.694 43.14 149.97 44.01 149.97 45.114V51H147.99V45.456C147.99 44.064 147.396 43.368 146.208 43.368C145.572 43.368 145.05 43.626 144.642 44.142C144.234 44.658 144.03 45.294 144.03 46.05V51H142.05V45.456C142.05 44.064 141.438 43.368 140.214 43.368C139.59 43.368 139.074 43.626 138.666 44.142C138.27 44.658 138.072 45.294 138.072 46.05V51H136.092V41.82ZM156.531 51.288C155.607 51.288 154.779 51.078 154.047 50.658C153.315 50.226 152.745 49.638 152.337 48.894C151.929 48.15 151.725 47.322 151.725 46.41C151.725 45.498 151.929 44.67 152.337 43.926C152.745 43.182 153.315 42.6 154.047 42.18C154.779 41.748 155.607 41.532 156.531 41.532C157.455 41.532 158.283 41.748 159.015 42.18C159.747 42.612 160.317 43.2 160.725 43.944C161.133 44.688 161.337 45.51 161.337 46.41C161.337 47.322 161.133 48.15 160.725 48.894C160.317 49.638 159.747 50.226 159.015 50.658C158.283 51.078 157.455 51.288 156.531 51.288ZM156.531 49.47C157.035 49.47 157.503 49.35 157.935 49.11C158.367 48.858 158.709 48.504 158.961 48.048C159.225 47.58 159.357 47.034 159.357 46.41C159.357 45.786 159.225 45.246 158.961 44.79C158.709 44.334 158.367 43.986 157.935 43.746C157.503 43.494 157.035 43.368 156.531 43.368C156.027 43.368 155.559 43.494 155.127 43.746C154.695 43.986 154.347 44.334 154.083 44.79C153.831 45.246 153.705 45.786 153.705 46.41C153.705 47.034 153.831 47.58 154.083 48.048C154.347 48.504 154.695 48.858 155.127 49.11C155.559 49.35 156.027 49.47 156.531 49.47ZM162.987 41.82H164.877V43.17H164.967C165.171 42.702 165.525 42.318 166.029 42.018C166.533 41.706 167.067 41.55 167.631 41.55C168.075 41.55 168.447 41.61 168.747 41.73V43.782C168.219 43.59 167.745 43.494 167.325 43.494C166.869 43.494 166.461 43.614 166.101 43.854C165.753 44.094 165.477 44.418 165.273 44.826C165.069 45.222 164.967 45.66 164.967 46.14V51H162.987V41.82ZM173.913 51.288C173.013 51.288 172.203 51.078 171.483 50.658C170.775 50.238 170.217 49.662 169.809 48.93C169.413 48.186 169.215 47.352 169.215 46.428C169.215 45.552 169.407 44.742 169.791 43.998C170.187 43.242 170.733 42.642 171.429 42.198C172.125 41.754 172.917 41.532 173.805 41.532C174.729 41.532 175.527 41.736 176.199 42.144C176.883 42.552 177.399 43.11 177.747 43.818C178.107 44.526 178.287 45.324 178.287 46.212C178.287 46.38 178.269 46.59 178.233 46.842H171.195C171.267 47.694 171.567 48.354 172.095 48.822C172.635 49.278 173.259 49.506 173.967 49.506C174.531 49.506 175.017 49.38 175.425 49.128C175.845 48.864 176.181 48.51 176.433 48.066L178.107 48.858C177.675 49.614 177.111 50.208 176.415 50.64C175.719 51.072 174.885 51.288 173.913 51.288ZM176.271 45.33C176.247 45.006 176.145 44.688 175.965 44.376C175.785 44.052 175.509 43.782 175.137 43.566C174.777 43.35 174.333 43.242 173.805 43.242C173.169 43.242 172.629 43.434 172.185 43.818C171.753 44.19 171.453 44.694 171.285 45.33H176.271Z" fill="white"/>
<path d="M331.537 44.704C331.537 45.3047 331.395 45.8713 331.112 46.404C330.829 46.9367 330.375 47.373 329.752 47.713C329.129 48.0417 328.33 48.206 327.355 48.206H325.213V53H323.275V41.185H327.355C328.262 41.185 329.027 41.3437 329.65 41.661C330.285 41.967 330.755 42.3863 331.061 42.919C331.378 43.4517 331.537 44.0467 331.537 44.704ZM327.355 46.625C328.092 46.625 328.641 46.4607 329.004 46.132C329.367 45.792 329.548 45.316 329.548 44.704C329.548 43.412 328.817 42.766 327.355 42.766H325.213V46.625H327.355ZM335.323 40.42V53H333.385V40.42H335.323ZM337.222 48.274C337.222 47.3333 337.414 46.5003 337.8 45.775C338.196 45.0497 338.729 44.4887 339.398 44.092C340.078 43.684 340.826 43.48 341.642 43.48C342.378 43.48 343.019 43.6273 343.563 43.922C344.118 44.2053 344.56 44.5623 344.889 44.993V43.633H346.844V53H344.889V51.606C344.56 52.048 344.112 52.4163 343.546 52.711C342.979 53.0057 342.333 53.153 341.608 53.153C340.803 53.153 340.066 52.949 339.398 52.541C338.729 52.1217 338.196 51.5437 337.8 50.807C337.414 50.059 337.222 49.2147 337.222 48.274ZM344.889 48.308C344.889 47.662 344.753 47.101 344.481 46.625C344.22 46.149 343.874 45.7863 343.444 45.537C343.013 45.2877 342.548 45.163 342.05 45.163C341.551 45.163 341.086 45.2877 340.656 45.537C340.225 45.775 339.874 46.132 339.602 46.608C339.341 47.0727 339.211 47.628 339.211 48.274C339.211 48.92 339.341 49.4867 339.602 49.974C339.874 50.4613 340.225 50.8353 340.656 51.096C341.098 51.3453 341.562 51.47 342.05 51.47C342.548 51.47 343.013 51.3453 343.444 51.096C343.874 50.8467 344.22 50.484 344.481 50.008C344.753 49.5207 344.889 48.954 344.889 48.308ZM357.821 43.633L352.075 57.403H350.069L351.973 52.847L348.284 43.633H350.443L353.078 50.773L355.815 43.633H357.821ZM367.559 41.185C368.817 41.185 369.916 41.4287 370.857 41.916C371.809 42.392 372.54 43.0833 373.05 43.99C373.571 44.8853 373.832 45.9337 373.832 47.135C373.832 48.3363 373.571 49.379 373.05 50.263C372.54 51.147 371.809 51.827 370.857 52.303C369.916 52.7677 368.817 53 367.559 53H363.7V41.185H367.559ZM367.559 51.419C368.941 51.419 370.001 51.045 370.738 50.297C371.474 49.549 371.843 48.495 371.843 47.135C371.843 45.7637 371.474 44.6927 370.738 43.922C370.001 43.1513 368.941 42.766 367.559 42.766H365.638V51.419H367.559ZM384.338 48.087C384.338 48.4383 384.315 48.7557 384.27 49.039H377.113C377.169 49.787 377.447 50.3877 377.946 50.841C378.444 51.2943 379.056 51.521 379.782 51.521C380.824 51.521 381.561 51.0847 381.992 50.212H384.083C383.799 51.0733 383.284 51.7817 382.536 52.337C381.799 52.881 380.881 53.153 379.782 53.153C378.886 53.153 378.082 52.9547 377.368 52.558C376.665 52.15 376.11 51.5833 375.702 50.858C375.305 50.1213 375.107 49.2713 375.107 48.308C375.107 47.3447 375.299 46.5003 375.685 45.775C376.081 45.0383 376.631 44.4717 377.334 44.075C378.048 43.6783 378.864 43.48 379.782 43.48C380.666 43.48 381.453 43.6727 382.145 44.058C382.836 44.4433 383.374 44.9873 383.76 45.69C384.145 46.3813 384.338 47.1803 384.338 48.087ZM382.315 47.475C382.303 46.761 382.048 46.1887 381.55 45.758C381.051 45.3273 380.433 45.112 379.697 45.112C379.028 45.112 378.456 45.3273 377.98 45.758C377.504 46.1773 377.22 46.7497 377.13 47.475H382.315ZM397.584 43.48C398.32 43.48 398.978 43.633 399.556 43.939C400.145 44.245 400.604 44.6983 400.933 45.299C401.273 45.8997 401.443 46.625 401.443 47.475V53H399.522V47.764C399.522 46.9253 399.312 46.285 398.893 45.843C398.473 45.3897 397.901 45.163 397.176 45.163C396.45 45.163 395.872 45.3897 395.442 45.843C395.022 46.285 394.813 46.9253 394.813 47.764V53H392.892V47.764C392.892 46.9253 392.682 46.285 392.263 45.843C391.843 45.3897 391.271 45.163 390.546 45.163C389.82 45.163 389.242 45.3897 388.812 45.843C388.392 46.285 388.183 46.9253 388.183 47.764V53H386.245V43.633H388.183V44.704C388.5 44.3187 388.902 44.0183 389.39 43.803C389.877 43.5877 390.398 43.48 390.954 43.48C391.702 43.48 392.37 43.6387 392.96 43.956C393.549 44.2733 394.002 44.7323 394.32 45.333C394.603 44.7663 395.045 44.3187 395.646 43.99C396.246 43.65 396.892 43.48 397.584 43.48ZM407.972 53.153C407.088 53.153 406.289 52.9547 405.575 52.558C404.861 52.15 404.3 51.5833 403.892 50.858C403.484 50.1213 403.28 49.2713 403.28 48.308C403.28 47.356 403.489 46.5117 403.909 45.775C404.328 45.0383 404.9 44.4717 405.626 44.075C406.351 43.6783 407.161 43.48 408.057 43.48C408.952 43.48 409.762 43.6783 410.488 44.075C411.213 44.4717 411.785 45.0383 412.205 45.775C412.624 46.5117 412.834 47.356 412.834 48.308C412.834 49.26 412.618 50.1043 412.188 50.841C411.757 51.5777 411.168 52.15 410.42 52.558C409.683 52.9547 408.867 53.153 407.972 53.153ZM407.972 51.47C408.47 51.47 408.935 51.351 409.366 51.113C409.808 50.875 410.165 50.518 410.437 50.042C410.709 49.566 410.845 48.988 410.845 48.308C410.845 47.628 410.714 47.0557 410.454 46.591C410.193 46.115 409.847 45.758 409.417 45.52C408.986 45.282 408.521 45.163 408.023 45.163C407.524 45.163 407.059 45.282 406.629 45.52C406.209 45.758 405.875 46.115 405.626 46.591C405.376 47.0557 405.252 47.628 405.252 48.308C405.252 49.3167 405.507 50.0987 406.017 50.654C406.538 51.198 407.19 51.47 407.972 51.47Z" fill="#686D77"/>
<g filter="url(#filter1_d_164_413)">
<circle cx="275" cy="45" r="26" fill="#DF6951"/>
</g>
<path d="M283 46.5L271.75 52.9952L271.75 40.0048L283 46.5Z" fill="white"/>
<defs>
<filter id="filter0_d_164_413" x="0" y="0" width="240" height="130" filterUnits="userSpaceOnUse" color-interpolation-filters="sRGB">
<feFlood flood-opacity="0" result="BackgroundImageFix"/>
<feColorMatrix in="SourceAlpha" type="matrix" values="0 0 0 0 0 0 0 0 0 0 0 0 0 0 0 0 0 0 127 0" result="hardAlpha"/>
<feOffset dy="20"/>
<feGaussianBlur stdDeviation="17.5"/>
<feColorMatrix type="matrix" values="0 0 0 0 0.945098 0 0 0 0 0.647059 0 0 0 0 0.00392157 0 0 0 0.15 0"/>
<feBlend mode="normal" in2="BackgroundImageFix" result="effect1_dropShadow_164_413"/>
<feBlend mode="normal" in="SourceGraphic" in2="effect1_dropShadow_164_413" result="shape"/>
</filter>
<filter id="filter1_d_164_413" x="219" y="4" width="112" height="112" filterUnits="userSpaceOnUse" color-interpolation-filters="sRGB">
<feFlood flood-opacity="0" result="BackgroundImageFix"/>
<feColorMatrix in="SourceAlpha" type="matrix" values="0 0 0 0 0 0 0 0 0 0 0 0 0 0 0 0 0 0 127 0" result="hardAlpha"/>
<feOffset dy="15"/>
<feGaussianBlur stdDeviation="15"/>
<feColorMatrix type="matrix" values="0 0 0 0 0.87451 0 0 0 0 0.411765 0 0 0 0 0.317647 0 0 0 0.3 0"/>
<feBlend mode="normal" in2="BackgroundImageFix" result="effect1_dropShadow_164_413"/>
<feBlend mode="normal" in="SourceGraphic" in2="effect1_dropShadow_164_413" result="shape"/>
</filter>
</defs>
</svg>
