=<svg width="145" height="129" viewBox="0 0 145 129" fill="none" xmlns="http://www.w3.org/2000/svg">
<path d="M35.8052 58.9998C35.8052 68.9409 43.864 76.9998 53.8052 76.9998L80.8052 76.9998C83.5666 76.9998 85.8052 74.7612 85.8052 71.9998L85.8052 37.9998C85.8052 32.4769 81.328 27.9998 75.8052 27.9998L40.8052 27.9998C38.0437 27.9998 35.8052 30.2383 35.8052 32.9998L35.8052 58.9998Z" fill="#FFF1DA"/>
<path d="M84.2749 72.9498C82.9217 73.1842 81.6104 73.6888 80.4223 74.4318C77.3256 76.3158 75.5659 79.1618 76.492 80.7881C77.4181 82.4143 80.6791 82.2046 83.7757 80.3206C84.9808 79.6073 86.044 78.6676 86.9 77.5595C87.2966 77.0231 87.3535 76.3291 87.0453 75.7895L85.8422 73.6769C85.536 73.1358 84.921 72.8509 84.2749 72.9498Z" fill="#D5D6DB"/>
<path d="M76.4193 45.9545C75.4381 46.1246 74.4871 46.4907 73.6255 47.0296C71.3807 48.3953 70.1039 50.4589 70.7749 51.6372C71.4458 52.8154 73.8114 52.6631 76.056 51.2975C76.9297 50.78 77.7006 50.0982 78.3214 49.2946C78.6086 48.9059 78.6498 48.403 78.4264 48.0118L77.5552 46.4821C77.3335 46.0899 76.8878 45.8829 76.4193 45.9545Z" fill="#D5D6DB"/>
<path d="M63.594 46.4388C63.374 46.4006 63.1413 46.4471 62.9416 46.5688L57.672 49.7711C57.2312 50.0381 57.0655 50.5924 57.3024 51.0095C57.3565 51.105 57.4295 51.1882 57.5173 51.2542L70.9374 61.4068L88.5087 50.7288L63.594 46.4388Z" fill="#029BC5"/>
<path d="M120.093 47.0414L71.7633 76.8916L43.0038 87.4066L28.264 89.6358L26.5661 86.5959L107.149 37.8922C109.551 36.4339 112.244 35.6128 114.958 35.5122C116.147 35.4749 117.324 35.5884 118.463 35.8492C119.472 36.0721 120.433 36.4423 121.317 36.9488C122.304 37.5218 124.161 37.6936 124.786 38.7539C124.788 38.7523 126.316 43.5385 120.093 47.0414Z" fill="#E1E6E9"/>
<path d="M71.9465 71.6127L51.6251 105.661C51.3725 106.141 51.5425 106.706 52.0043 106.923C52.2877 107.056 52.6301 107.03 52.9141 106.856L58.2143 103.601C59.2337 102.974 60.13 102.155 60.848 101.193L100.682 53.1405L71.9465 71.6127Z" fill="#029BC5"/>
<path d="M19.0874 70.6985C18.7352 70.5558 18.3212 70.595 17.9758 70.8033L13.6401 73.4195C13.0493 73.7756 12.8283 74.5139 13.1462 75.0687C13.2068 75.1741 13.2844 75.2684 13.3767 75.3477L25.9627 86.1944L38.7388 78.6508L19.0874 70.6985Z" fill="#029BC5"/>
<path d="M29.8074 87.5915L23.3226 97.0636C23.2275 97.1996 23.2548 97.3791 23.3837 97.4644C23.4766 97.5258 23.6014 97.5232 23.7013 97.4578L27.7989 94.9385C27.8307 94.9189 27.8594 94.8937 27.8828 94.8644L37.4029 82.9264L29.8074 87.5915Z" fill="#029BC5"/>
<path d="M117.879 35.9289C116.716 35.6675 115.513 35.5552 114.298 35.5941C113.154 37.2412 112.442 39.1254 112.234 41.0589C112.225 41.4492 112.536 41.7489 112.93 41.7284C113.052 41.7218 113.173 41.6844 113.281 41.6194L120.796 37.0327C119.892 36.5237 118.91 36.1521 117.879 35.9289Z" fill="#029BC5"/>
<path d="M101.332 44.4868L106.163 41.6284L110.926 49.7759L106.095 52.6344L101.332 44.4868Z" fill="#D5D6DB"/>
<path d="M98.1787 47.8172C97.5956 48.1631 97.3776 48.8837 97.6922 49.4267L98.202 50.3064C98.5361 50.8373 99.2709 50.9725 99.8434 50.6083C100.388 50.2615 100.594 49.5825 100.313 49.0544L99.8033 48.1747C99.4889 47.6321 98.7619 47.472 98.1787 47.8172Z" fill="#3A556A"/>
<path d="M93.7143 50.5897C93.1312 50.9355 92.9131 51.6562 93.2278 52.1992L93.7375 53.0789C94.0716 53.6097 94.8064 53.7449 95.3789 53.3808C95.9237 53.034 96.1292 52.355 95.8486 51.8269L95.3389 50.9471C95.0243 50.4047 94.2972 50.2446 93.7143 50.5897Z" fill="#3A556A"/>
<path d="M89.2485 53.3631C88.666 53.7095 88.4488 54.4293 88.7632 54.9718L89.2729 55.8515C89.607 56.3824 90.3418 56.5176 90.9143 56.1534C91.4591 55.8066 91.6646 55.1277 91.384 54.5995L90.8743 53.7199C90.5596 53.1769 89.8318 53.0172 89.2485 53.3631Z" fill="#3A556A"/>
<path d="M84.7842 56.1353C84.2017 56.4817 83.9845 57.2015 84.2989 57.7441L84.8087 58.6238C85.1427 59.1547 85.8776 59.2899 86.45 58.9257C86.9949 58.5789 87.2003 57.8999 86.9198 57.3718L86.41 56.4921C86.0951 55.9492 85.3673 55.7895 84.7842 56.1353Z" fill="#3A556A"/>
<path d="M80.3201 58.908C79.7374 59.2544 79.5201 59.9743 79.8346 60.5169L80.3446 61.3966C80.6589 61.939 81.3863 62.0985 81.9692 61.753C82.552 61.4074 82.7697 60.6876 82.4553 60.1453L81.9453 59.2655C81.6317 58.7227 80.9046 58.5624 80.3213 58.9073C80.3208 58.9076 80.3206 58.9077 80.3201 58.908Z" fill="#3A556A"/>
<path d="M75.8556 61.6805C75.2729 62.0269 75.0557 62.7467 75.3702 63.2893L75.8801 64.1691C76.1945 64.7115 76.9219 64.871 77.5047 64.5254C78.0876 64.1799 78.3053 63.4601 77.9909 62.9178L77.4809 62.038C77.1673 61.4952 76.4401 61.3349 75.8569 61.6798C75.8564 61.68 75.8559 61.6803 75.8556 61.6805Z" fill="#3A556A"/>
<path d="M71.391 64.453C70.8083 64.7993 70.5911 65.5192 70.9056 66.0618L71.4155 66.9415C71.7306 67.4834 72.4583 67.6419 73.0405 67.2958C73.6218 66.9503 73.839 66.232 73.526 65.6903L73.016 64.8106C72.7018 64.2679 71.9744 64.1077 71.391 64.453Z" fill="#3A556A"/>
<path d="M66.9264 67.2254C66.3437 67.5718 66.1265 68.2917 66.441 68.8343L66.9509 69.714C67.266 70.256 67.9937 70.4144 68.5759 70.0683C69.1572 69.7228 69.3744 69.0045 69.0614 68.4628L68.5514 67.583C68.2372 67.0403 67.5098 66.8801 66.9264 67.2254Z" fill="#3A556A"/>
<path d="M62.4622 69.9979C61.8794 70.3443 61.6622 71.0641 61.9767 71.6067L62.4866 72.4865C62.8017 73.0284 63.5294 73.1868 64.1116 72.8407C64.6929 72.4952 64.9101 71.7769 64.5971 71.2353L64.0871 70.3555C63.7726 69.8129 63.0453 69.6528 62.4622 69.9979Z" fill="#3A556A"/>
<path d="M57.9963 72.771C57.4135 73.1166 57.1958 73.8364 57.5102 74.3788L57.5109 74.3799L58.0208 75.2597C58.3359 75.8016 59.0636 75.96 59.6458 75.6139C60.2271 75.2684 60.4443 74.5501 60.1313 74.0085L59.6213 73.1287C59.3071 72.5859 58.5797 72.4258 57.9963 72.771Z" fill="#3A556A"/>
<path d="M53.5332 75.5428C52.9503 75.8883 52.7326 76.6081 53.047 77.1505L53.0477 77.1516L53.5576 78.0314C53.8728 78.5733 54.6004 78.7317 55.1827 78.3856C55.7639 78.0401 55.9811 77.3218 55.6681 76.7802L55.1582 75.9004C54.8437 75.3579 54.1163 75.1977 53.5332 75.5428Z" fill="#3A556A"/>
</svg>
