<svg width="24" height="24" viewBox="0 0 24 24" fill="none" xmlns="http://www.w3.org/2000/svg">
<path d="M2.99988 4C2.99988 3.44772 3.44759 3 3.99988 3H7.99988C8.55216 3 8.99988 3.44772 8.99988 4C8.99988 4.55228 8.55216 5 7.99988 5H4.99988V19H18.9999V16C18.9999 15.4477 19.4476 15 19.9999 15C20.5522 15 20.9999 15.4477 20.9999 16V20C20.9999 20.5523 20.5522 21 19.9999 21H3.99988C3.96536 21 3.93125 20.9983 3.89763 20.9948C3.39338 20.9436 2.99988 20.5178 2.99988 20V4Z" fill="#B7B7B7"/>
<path d="M14.0002 3C13.4479 3 13.0002 3.44772 13.0002 4C13.0002 4.55228 13.4479 5 14.0002 5L17.5867 5L8.92949 13.6572C8.53897 14.0477 8.53897 14.6809 8.92949 15.0714C9.32001 15.4619 9.95318 15.4619 10.3437 15.0714L19.0002 6.41495V10C19.0002 10.5523 19.4479 11 20.0002 11C20.5525 11 21.0002 10.5523 21.0002 10V4C21.0002 3.44772 20.5525 3 20.0002 3H14.0002Z" fill="#B7B7B7"/>
</svg>
