<svg width="20" height="20" viewBox="0 0 20 20" fill="none" xmlns="http://www.w3.org/2000/svg">
<path fill-rule="evenodd" clip-rule="evenodd" d="M15.6534 14.2392C18.2897 10.903 18.0677 6.04685 14.9874 2.96661C11.668 -0.352844 6.28608 -0.352844 2.96663 2.96661C-0.352829 6.28607 -0.352829 11.668 2.96663 14.9874C6.04686 18.0677 10.903 18.2896 14.2392 15.6534L17.8159 19.2301C18.2064 19.6206 18.8396 19.6206 19.2301 19.2301C19.6206 18.8395 19.6206 18.2064 19.2301 17.8159L15.6534 14.2392ZM13.5732 4.38083C16.1116 6.91923 16.1116 11.0348 13.5732 13.5732C11.0348 16.1116 6.91925 16.1116 4.38084 13.5732C1.84243 11.0348 1.84243 6.91923 4.38084 4.38083C6.91925 1.84242 11.0348 1.84242 13.5732 4.38083Z" fill="#282828"/>
</svg>
